<svg width="134" height="33" viewBox="0 0 134 33" fill="none" xmlns="http://www.w3.org/2000/svg">
<g clip-path="url(#clip0_2321_346)">
<path d="M20.5297 7.18143C20.5297 9.10694 18.9683 10.6672 17.0411 10.6672C15.1167 10.6672 13.5547 9.10694 13.5547 7.18143C13.5547 5.25533 15.1167 3.69388 17.0411 3.69388C18.9683 3.69388 20.5297 5.25533 20.5297 7.18143Z" fill="#335880"/>
<path d="M13.1131 29.4184C13.1313 29.1963 12.9025 29.1279 12.2962 29.0725C7.63868 28.6491 4.41259 27.3414 4.41259 26.0399C4.41259 24.9041 6.95057 23.9142 10.694 23.4019C10.7946 23.3864 10.9814 23.3931 10.9985 23.2758C11.0135 23.1588 10.6984 22.8935 10.5116 22.8182C10.3237 22.7437 10.0241 22.6917 9.82517 22.7121C4.03792 23.3096 0.100548 24.6145 0.104984 26.1201C0.110496 27.7417 4.80177 29.1042 11.3252 29.5811C11.8297 29.6191 13.086 29.7468 13.1131 29.4184Z" fill="#335880"/>
<path d="M24.7278 23.048C24.7179 23.0457 24.6669 23.0446 24.6179 23.0645C24.5719 23.0855 24.3293 23.374 24.4144 23.3928C24.5172 23.4132 24.5891 23.4282 24.6151 23.4337C27.2807 23.9808 28.8437 24.5401 28.8437 25.4697C28.8437 26.4701 26.891 27.3949 23.8634 27.9426C23.833 27.9468 23.765 27.958 23.7578 27.9216C23.7533 27.8829 23.817 27.8706 23.8429 27.8609C25.2258 27.376 26.0553 26.7802 26.0553 26.111C26.0553 25.1509 24.7708 24.4397 21.6923 23.8416C20.3814 23.589 18.8018 22.9098 18.7256 20.8437C18.7256 20.0191 18.7984 19.3603 19.2047 18.6782C19.6121 17.9962 20.3394 16.7654 20.3394 15.4118C20.3394 13.211 18.5375 11.8314 16.7811 11.8542C15.0246 11.8751 13.3643 13.211 13.3643 15.4118C13.3643 16.7957 14.4824 18.2721 14.7117 18.7291C14.9593 19.216 15.1909 19.8467 15.1909 20.8918C15.1909 22.5732 12.9796 23.6237 11.9427 23.8908C10.0381 24.381 7.83728 24.8752 7.83789 26.1109C7.83789 26.9255 8.51104 27.5102 10.4925 27.9967C11.0938 28.131 12.1312 28.3316 12.8967 28.4035C13.7766 28.4863 14.9545 28.5792 16.5224 28.4384C17.2028 28.3771 17.5637 28.3764 17.588 28.6174C17.614 28.8844 17.1596 28.9907 16.9833 29.027C16.2095 29.1807 15.286 29.241 15.2899 29.4271C15.2948 29.6798 15.8663 29.6923 16.6396 29.6936C23.4333 29.7168 33.4453 28.1456 33.4375 26.1011C33.4332 24.6706 30.0651 23.6453 24.7278 23.048Z" fill="#335880"/>
<path d="M43.5095 18.7659C43.1082 18.7659 42.7488 18.6772 42.4315 18.4999C42.1235 18.3132 41.8808 18.0659 41.7035 17.7579C41.5262 17.4499 41.4375 17.0952 41.4375 16.6939C41.4375 16.2926 41.5262 15.9379 41.7035 15.6299C41.8808 15.3126 42.1235 15.0652 42.4315 14.8879C42.7488 14.7106 43.1082 14.6219 43.5095 14.6219C43.9108 14.6219 44.2655 14.7106 44.5735 14.8879C44.8908 15.0652 45.1382 15.3126 45.3155 15.6299C45.4928 15.9379 45.5815 16.2926 45.5815 16.6939C45.5815 17.0952 45.4928 17.4499 45.3155 17.7579C45.1382 18.0659 44.8908 18.3132 44.5735 18.4999C44.2655 18.6772 43.9108 18.7659 43.5095 18.7659Z" fill="#A3B7CC"/>
<circle cx="117.582" cy="16.6939" r="14.75" fill="url(#paint0_linear_2321_346)" stroke="white" stroke-width="2.5"/>
<circle cx="105.582" cy="16.6939" r="14.75" fill="url(#paint1_linear_2321_346)" stroke="white" stroke-width="2.5"/>
<circle cx="93.5815" cy="16.6939" r="14.75" fill="url(#paint2_linear_2321_346)" stroke="white" stroke-width="2.5"/>
<circle cx="81.5815" cy="16.6939" r="14.75" fill="url(#paint3_linear_2321_346)" stroke="white" stroke-width="2.5"/>
<circle cx="69.5815" cy="16.6939" r="14.75" fill="url(#paint4_linear_2321_346)" stroke="white" stroke-width="2.5"/>
<g clip-path="url(#clip1_2321_346)">
<path d="M77.4389 12.1951C77.3132 11.7012 76.8193 11.4139 76.3254 11.5216C74.1883 11.9975 71.8087 12.2041 69.5817 12.2041C67.3548 12.2041 64.9752 11.9975 62.8381 11.5216C62.3442 11.4139 61.8503 11.7012 61.7246 12.1951C61.5989 12.6979 61.9042 13.2098 62.3981 13.3265C63.8438 13.6498 65.4062 13.8743 66.8879 14V24.7755C66.8879 25.2694 67.2919 25.6734 67.7858 25.6734C68.2797 25.6734 68.6838 25.2694 68.6838 24.7755V20.2857H70.4797V24.7755C70.4797 25.2694 70.8838 25.6734 71.3777 25.6734C71.8715 25.6734 72.2756 25.2694 72.2756 24.7755V14C73.7572 13.8743 75.3197 13.6498 76.7564 13.3265C77.2593 13.2098 77.5646 12.6979 77.4389 12.1951V12.1951ZM69.5817 11.3061C70.5695 11.3061 71.3777 10.4979 71.3777 9.51018C71.3777 8.52243 70.5695 7.71426 69.5817 7.71426C68.594 7.71426 67.7858 8.52243 67.7858 9.51018C67.7858 10.4979 68.594 11.3061 69.5817 11.3061Z" fill="white"/>
</g>
</g>
<defs>
<linearGradient id="paint0_linear_2321_346" x1="117.582" y1="0.693878" x2="117.582" y2="32.6939" gradientUnits="userSpaceOnUse">
<stop stop-color="#F4900C"/>
<stop offset="1" stop-color="#F4C10C"/>
</linearGradient>
<linearGradient id="paint1_linear_2321_346" x1="105.582" y1="0.693878" x2="105.582" y2="32.6939" gradientUnits="userSpaceOnUse">
<stop stop-color="#CB3A8C"/>
<stop offset="1" stop-color="#FF79C5"/>
</linearGradient>
<linearGradient id="paint2_linear_2321_346" x1="84.7738" y1="0.693878" x2="84.7738" y2="32.6939" gradientUnits="userSpaceOnUse">
<stop stop-color="#7536C8"/>
<stop offset="1" stop-color="#CAA5FC"/>
</linearGradient>
<linearGradient id="paint3_linear_2321_346" x1="81.5815" y1="0.693878" x2="81.5815" y2="32.6939" gradientUnits="userSpaceOnUse">
<stop stop-color="#157D59"/>
<stop offset="1" stop-color="#2FB083"/>
</linearGradient>
<linearGradient id="paint4_linear_2321_346" x1="69.5815" y1="0.693878" x2="69.5815" y2="32.6939" gradientUnits="userSpaceOnUse">
<stop stop-color="#205FE1"/>
<stop offset="1" stop-color="#0DA5FA"/>
</linearGradient>
<clipPath id="clip0_2321_346">
<rect width="133.477" height="32" fill="white" transform="translate(0.10498 0.693878)"/>
</clipPath>
<clipPath id="clip1_2321_346">
<rect width="21.551" height="21.551" fill="white" transform="translate(58.8062 5.91837)"/>
</clipPath>
</defs>
</svg>
