<svg width="20" height="20" viewBox="0 0 20 20" fill="none" xmlns="http://www.w3.org/2000/svg">
<g clip-path="url(#clip0_2321_365)">
<path d="M13.5333 9.59079L14.8416 8.28245L11.7166 5.15745L10.4083 6.46579L6.95827 3.02412C6.30827 2.37412 5.24994 2.37412 4.59994 3.02412L3.01661 4.60745C2.36661 5.25745 2.36661 6.31579 3.01661 6.96579L6.45827 10.4075L2.62494 14.2491C2.54161 14.3325 2.49994 14.4325 2.49994 14.5491V17.0825C2.49994 17.3158 2.68327 17.4991 2.91661 17.4991H5.44994C5.55827 17.4991 5.66661 17.4575 5.74161 17.3741L9.59161 13.5241L13.0333 16.9658C14.1333 18.0658 15.3333 17.0241 15.3916 16.9658L16.9749 15.3825C17.6249 14.7325 17.6249 13.6741 16.9749 13.0241L13.5333 9.59079ZM7.64994 9.22412L4.19994 5.78245L5.77494 4.19912L6.83327 5.25745L6.44161 5.66579C6.11661 5.99079 6.11661 6.51579 6.44161 6.84079C6.76661 7.16579 7.29161 7.16579 7.61661 6.84079L8.01661 6.44079L9.22494 7.64912L7.64994 9.22412ZM14.2166 15.7991L10.7749 12.3575L12.3583 10.7741L13.5666 11.9825L13.1666 12.3825C12.8416 12.7075 12.8416 13.2325 13.1666 13.5575C13.4916 13.8825 14.0166 13.8825 14.3416 13.5575L14.7416 13.1575L15.7999 14.2158L14.2166 15.7991Z" fill="url(#paint0_linear_2321_365)"/>
<path d="M17.2582 5.86623C17.5832 5.54123 17.5832 5.01623 17.2582 4.69123L15.3082 2.74123C14.9165 2.34956 14.3748 2.49956 14.1332 2.74123L12.6082 4.26623L15.7332 7.39123L17.2582 5.86623Z" fill="url(#paint1_linear_2321_365)"/>
</g>
<defs>
<linearGradient id="paint0_linear_2321_365" x1="9.98119" y1="2.53662" x2="9.98119" y2="17.4991" gradientUnits="userSpaceOnUse">
<stop stop-color="#205FE1"/>
<stop offset="1" stop-color="#0DA5FA"/>
</linearGradient>
<linearGradient id="paint1_linear_2321_365" x1="15.055" y1="2.50049" x2="15.055" y2="7.39123" gradientUnits="userSpaceOnUse">
<stop stop-color="#205FE1"/>
<stop offset="1" stop-color="#0DA5FA"/>
</linearGradient>
<clipPath id="clip0_2321_365">
<rect width="20" height="20" fill="white"/>
</clipPath>
</defs>
</svg>
