<svg width="20" height="20" viewBox="0 0 20 20" fill="none" xmlns="http://www.w3.org/2000/svg">
<g clip-path="url(#clip0_2321_376)">
<path d="M17.2919 5.82484C17.1752 5.3665 16.7169 5.09984 16.2586 5.19984C14.2752 5.6415 12.0669 5.83317 10.0002 5.83317C7.93358 5.83317 5.72524 5.6415 3.74191 5.19984C3.28358 5.09984 2.82524 5.3665 2.70858 5.82484C2.59191 6.2915 2.87524 6.7665 3.33358 6.87484C4.67524 7.17484 6.12524 7.38317 7.50024 7.49984V17.4998C7.50024 17.9582 7.87524 18.3332 8.33358 18.3332C8.79191 18.3332 9.16691 17.9582 9.16691 17.4998V13.3332H10.8336V17.4998C10.8336 17.9582 11.2086 18.3332 11.6669 18.3332C12.1252 18.3332 12.5002 17.9582 12.5002 17.4998V7.49984C13.8752 7.38317 15.3252 7.17484 16.6586 6.87484C17.1252 6.7665 17.4086 6.2915 17.2919 5.82484V5.82484ZM10.0002 4.99984C10.9169 4.99984 11.6669 4.24984 11.6669 3.33317C11.6669 2.4165 10.9169 1.6665 10.0002 1.6665C9.08358 1.6665 8.33358 2.4165 8.33358 3.33317C8.33358 4.24984 9.08358 4.99984 10.0002 4.99984Z" fill="url(#paint0_linear_2321_376)"/>
</g>
<defs>
<linearGradient id="paint0_linear_2321_376" x1="10.0002" y1="1.6665" x2="10.0002" y2="18.3332" gradientUnits="userSpaceOnUse">
<stop stop-color="#CB3A8C"/>
<stop offset="1" stop-color="#FF79C5"/>
</linearGradient>
<clipPath id="clip0_2321_376">
<rect width="20" height="20" fill="white"/>
</clipPath>
</defs>
</svg>
